<svg xmlns="http://www.w3.org/2000/svg" fill="none" viewBox="0 0 18 19" height="19" width="18">
<path fill="#754ABC" d="M12.9054 2.53315C12.6125 2.24025 12.1376 2.24025 11.8447 2.53315C11.5518 2.82604 11.5518 3.30091 11.8447 3.59381L13.1894 4.93848L11.8447 6.28315C11.5518 6.57604 11.5518 7.05091 11.8447 7.34381C12.1376 7.6367 12.6125 7.6367 12.9054 7.34381L14.2501 5.99914L15.5947 7.34381C15.8876 7.6367 16.3625 7.6367 16.6554 7.34381C16.9483 7.05091 16.9483 6.57604 16.6554 6.28315L15.3107 4.93848L16.6554 3.59381C16.9483 3.30091 16.9483 2.82604 16.6554 2.53315C16.3625 2.24025 15.8876 2.24025 15.5947 2.53315L14.2501 3.87782L12.9054 2.53315Z"></path>
<path fill="#754ABC" d="M5.06904 10.5635H8.43099C9.03472 10.5635 9.53299 10.5635 9.93889 10.5966C10.3605 10.6311 10.748 10.705 11.112 10.8905C11.6765 11.1781 12.1354 11.637 12.423 12.2015C12.6085 12.5655 12.6824 12.953 12.7169 13.3746C12.75 13.7805 12.75 14.2788 12.75 14.8825C12.75 15.0945 12.7597 15.3094 12.7424 15.5208C12.7335 15.6298 12.7107 15.7858 12.6274 15.9492C12.5195 16.1609 12.3474 16.333 12.1358 16.4409C11.9723 16.5241 11.8163 16.547 11.7074 16.5559C11.6134 16.5636 11.5067 16.5635 11.4174 16.5635C8.3058 16.5623 5.19423 16.5623 2.08266 16.5635C1.99333 16.5635 1.88663 16.5636 1.79264 16.5559C1.68373 16.547 1.52774 16.5241 1.36428 16.4409C1.1526 16.333 0.980492 16.1609 0.872635 15.9492C0.789348 15.7858 0.766515 15.6298 0.757617 15.5208C0.740337 15.3094 0.750017 15.0945 0.750017 14.8825C0.750007 14.2788 0.749999 13.7805 0.783162 13.3746C0.817606 12.953 0.891529 12.5655 1.077 12.2015C1.36462 11.637 1.82356 11.1781 2.38805 10.8905C2.75205 10.705 3.13957 10.6311 3.56115 10.5966C3.96704 10.5635 4.46531 10.5635 5.06904 10.5635Z" clip-rule="evenodd" fill-rule="evenodd"></path>
<path fill="#754ABC" d="M3.37502 5.68848C3.37502 3.82452 4.88606 2.31348 6.75002 2.31348C8.61398 2.31348 10.125 3.82452 10.125 5.68848C10.125 7.55244 8.61398 9.06348 6.75002 9.06348C4.88606 9.06348 3.37502 7.55244 3.37502 5.68848Z" clip-rule="evenodd" fill-rule="evenodd"></path>
</svg>
