<svg id="图层_1" data-name="图层 1" xmlns="http://www.w3.org/2000/svg" viewBox="0 0 340 250"><defs><style>.cls-1{fill:#fff;}.cls-1,.cls-2{fill-opacity:0;}.cls-2,.cls-3{fill:#8dc21f;}</style></defs><title>logo-new</title><rect class="cls-1" width="340" height="250"/><rect class="cls-2" x="42" y="79.74" width="60" height="60.01"/><path class="cls-3" d="M45.81,49.92c-2.38,1.38-4.31,4.42-4.31,6.81V60H54.82A7.19,7.19,0,0,0,62,52.83V41.31Z" transform="translate(40 79.74)"/><path class="cls-3" d="M34.75,47.09c0-2.38-1.93-5.43-4.31-6.8L2,25.24V52.83A7.18,7.18,0,0,0,9.17,60H34.75Z" transform="translate(40 79.74)"/><path class="cls-3" d="M54.83,0H9.17A7.18,7.18,0,0,0,2,7.17v.11L32.83,23.66c2.39,1.37,4.32,4.43,4.32,6.81V60h2V40.1c0-2.38,1.93-5.43,4.31-6.8L62,23.37V7.17A7.18,7.18,0,0,0,54.83,0Z" transform="translate(40 79.74)"/><path class="cls-3" d="M87.07,19.43h0a2,2,0,0,1,1.37.52,1.65,1.65,0,0,1,.58,1.3h0a2,2,0,0,1-.19.84h0L81.08,40.23a1.87,1.87,0,0,1-.8.92,2,2,0,0,1-1,.3h0a2,2,0,0,1-1-.33,1.92,1.92,0,0,1-.72-.86h0l-7.75-18.2a1.28,1.28,0,0,1-.13-.39,2.56,2.56,0,0,1,0-.39h0a1.65,1.65,0,0,1,.66-1.4,2.16,2.16,0,0,1,1.25-.48h0a1.79,1.79,0,0,1,1.73,1.22h0l6.87,16.16-1.1,0,6.31-16.19A1.8,1.8,0,0,1,87.07,19.43ZM107.4,33.07h0a8.85,8.85,0,0,1-1.14,4.54,8.15,8.15,0,0,1-3.08,3.06,8.55,8.55,0,0,1-4.31,1.09h0a8.61,8.61,0,0,1-4.32-1.09,8.27,8.27,0,0,1-3.07-3.06,8.85,8.85,0,0,1-1.14-4.54h0a8.86,8.86,0,0,1,1.14-4.53,8.45,8.45,0,0,1,3.07-3.07,8.53,8.53,0,0,1,4.32-1.12h0a8.47,8.47,0,0,1,4.31,1.12,8.32,8.32,0,0,1,3.08,3.07A8.86,8.86,0,0,1,107.4,33.07Zm-3.76,0h0A5.56,5.56,0,0,0,103,30.3a4.77,4.77,0,0,0-1.72-1.84,4.51,4.51,0,0,0-2.4-.66h0a4.51,4.51,0,0,0-2.4.66,5,5,0,0,0-1.73,1.84,5.78,5.78,0,0,0-.64,2.77h0a5.73,5.73,0,0,0,.64,2.75,4.77,4.77,0,0,0,1.73,1.83,4.51,4.51,0,0,0,2.4.66h0a4.51,4.51,0,0,0,2.4-.66A4.61,4.61,0,0,0,103,35.82,5.51,5.51,0,0,0,103.64,33.07Zm14.21-8.72h0a11.58,11.58,0,0,1,3.12.38A5.28,5.28,0,0,1,123,25.78a2.12,2.12,0,0,1,.74,1.62h0a2,2,0,0,1-.38,1.17,1.24,1.24,0,0,1-1.1.55h0a2,2,0,0,1-1.41-.5,3.29,3.29,0,0,0-.6-.41h0a3,3,0,0,0-1-.3,6.79,6.79,0,0,0-1-.11h0a5.05,5.05,0,0,0-2.71.69A4.67,4.67,0,0,0,114,30.36a5.91,5.91,0,0,0-.6,2.71h0a5.83,5.83,0,0,0,.61,2.69,4.84,4.84,0,0,0,1.7,1.86,4.52,4.52,0,0,0,2.49.69h0a8.78,8.78,0,0,0,1.35-.09,3.38,3.38,0,0,0,.94-.28h0a3.84,3.84,0,0,0,.78-.54,1.7,1.7,0,0,1,1-.28h0a1.54,1.54,0,0,1,1.25.52,1.87,1.87,0,0,1,.44,1.27h0a1.81,1.81,0,0,1-.87,1.43,6.89,6.89,0,0,1-2.31,1,11.67,11.67,0,0,1-3.09.39h0a8,8,0,0,1-4.3-1.14,7.65,7.65,0,0,1-2.81-3.12,9.87,9.87,0,0,1-1-4.43h0a9.47,9.47,0,0,1,1.05-4.53,7.82,7.82,0,0,1,2.91-3.07A8.27,8.27,0,0,1,117.85,24.35Zm22.43,0h0a1.79,1.79,0,0,1,1.34.54,1.87,1.87,0,0,1,.54,1.38h0V39.54a1.85,1.85,0,0,1-.54,1.36,1.76,1.76,0,0,1-1.34.55h0a1.8,1.8,0,0,1-1.35-.55,1.85,1.85,0,0,1-.54-1.36h0V38l.69.28a1.68,1.68,0,0,1-.44,1,5.22,5.22,0,0,1-1.19,1.14,7.09,7.09,0,0,1-1.77,1,6.11,6.11,0,0,1-2.21.39h0a7.19,7.19,0,0,1-3.92-1.11,7.8,7.8,0,0,1-2.78-3.07,9.61,9.61,0,0,1-1-4.51h0a9.69,9.69,0,0,1,1-4.53,8,8,0,0,1,2.75-3.07,6.91,6.91,0,0,1,3.82-1.12h0a7.29,7.29,0,0,1,2.48.41,7.42,7.42,0,0,1,2,1,5.77,5.77,0,0,1,1.29,1.27,2,2,0,0,1,.45,1.08h0l-1.13.41V26.27a1.89,1.89,0,0,1,.54-1.37A1.84,1.84,0,0,1,140.28,24.35Zm-6.34,14h0a4.21,4.21,0,0,0,2.41-.69A4.51,4.51,0,0,0,138,35.74a6,6,0,0,0,.58-2.67h0a6,6,0,0,0-.58-2.69,4.54,4.54,0,0,0-1.62-1.89,4.21,4.21,0,0,0-2.41-.69h0a4.18,4.18,0,0,0-2.38.69,4.68,4.68,0,0,0-1.62,1.89,6.17,6.17,0,0,0-.58,2.69h0a6.09,6.09,0,0,0,.58,2.67,4.65,4.65,0,0,0,1.62,1.88A4.18,4.18,0,0,0,133.94,38.31Zm21-14h0a7.16,7.16,0,0,1,3.93,1.12,7.87,7.87,0,0,1,2.76,3.06,9.58,9.58,0,0,1,1,4.51h0a9.68,9.68,0,0,1-1,4.54,7.92,7.92,0,0,1-2.73,3.07,6.9,6.9,0,0,1-3.84,1.11h0a6.79,6.79,0,0,1-2.35-.4,7.57,7.57,0,0,1-1.93-1,6.23,6.23,0,0,1-1.29-1.27A2,2,0,0,1,149,38h0l1-.41v2.29a1.83,1.83,0,0,1-.53,1.36,1.8,1.8,0,0,1-1.35.55h0a1.82,1.82,0,0,1-1.35-.53,1.87,1.87,0,0,1-.53-1.38h0V20.15a1.89,1.89,0,0,1,.53-1.36,1.84,1.84,0,0,1,1.35-.55h0A1.85,1.85,0,0,1,150,20.15h0v8l-.53-.28a1.81,1.81,0,0,1,.44-1,6.94,6.94,0,0,1,1.19-1.16,7.25,7.25,0,0,1,1.74-1A5.87,5.87,0,0,1,154.93,24.35Zm-.47,3.45h0a4.27,4.27,0,0,0-2.42.69,4.76,4.76,0,0,0-1.62,1.87,6.1,6.1,0,0,0-.58,2.68h0a6.21,6.21,0,0,0,.58,2.69A4.68,4.68,0,0,0,152,37.62a4.27,4.27,0,0,0,2.42.69h0a4.13,4.13,0,0,0,2.39-.69,4.64,4.64,0,0,0,1.6-1.89A5.94,5.94,0,0,0,159,33h0a5.84,5.84,0,0,0-.59-2.68,4.71,4.71,0,0,0-1.6-1.87A4.13,4.13,0,0,0,154.46,27.8Zm26.94-8.37h0a2,2,0,0,1,1.37.52,1.65,1.65,0,0,1,.58,1.3h0a2,2,0,0,1-.19.84h0l-7.75,18.14a1.87,1.87,0,0,1-.8.92,2,2,0,0,1-1.05.3h0a2,2,0,0,1-1-.33,1.92,1.92,0,0,1-.72-.86h0l-7.75-18.2a1.28,1.28,0,0,1-.13-.39,2.56,2.56,0,0,1,0-.39h0a1.65,1.65,0,0,1,.66-1.4,2.16,2.16,0,0,1,1.25-.48h0a1.79,1.79,0,0,1,1.73,1.22h0l6.87,16.16-1.1,0,6.31-16.19A1.8,1.8,0,0,1,181.4,19.43Zm11.95,22.33h0a9.24,9.24,0,0,1-4.62-1.11,7.69,7.69,0,0,1-3-3,8.82,8.82,0,0,1-1.06-4.33h0a9.54,9.54,0,0,1,1.15-4.81,8.17,8.17,0,0,1,3-3.06,7.76,7.76,0,0,1,3.92-1.07h0a7,7,0,0,1,3,.66,8.26,8.26,0,0,1,2.53,1.81A8.47,8.47,0,0,1,200,29.47a8,8,0,0,1,.64,3.2h0a1.58,1.58,0,0,1-.59,1.22,2,2,0,0,1-1.32.47h-12l-1-3.14h11.52l-.69.63V31a2.85,2.85,0,0,0-.65-1.63,4.05,4.05,0,0,0-1.44-1.14,4.1,4.1,0,0,0-1.83-.43h0a6,6,0,0,0-1.76.26,3.49,3.49,0,0,0-1.41.84,4.16,4.16,0,0,0-.94,1.6,8,8,0,0,0-.35,2.54h0a5.45,5.45,0,0,0,.71,2.87,4.73,4.73,0,0,0,1.82,1.79,4.81,4.81,0,0,0,2.37.61h0a7,7,0,0,0,1.85-.19,3.87,3.87,0,0,0,1.11-.45c.28-.18.54-.33.77-.45h0a2.39,2.39,0,0,1,1.07-.29h0a1.52,1.52,0,0,1,1.14.47,1.55,1.55,0,0,1,.45,1.1h0a2,2,0,0,1-.87,1.54h0a7.17,7.17,0,0,1-2.29,1.21A9.25,9.25,0,0,1,193.35,41.76Zm12.33-.31h0a1.8,1.8,0,0,1-1.35-.55,1.89,1.89,0,0,1-.53-1.36h0v-13a1.9,1.9,0,0,1,.53-1.36,1.84,1.84,0,0,1,1.35-.55h0a1.81,1.81,0,0,1,1.35.55,1.86,1.86,0,0,1,.53,1.36h0v3l-.22-2.1a5.43,5.43,0,0,1,.9-1.34,5.54,5.54,0,0,1,1.24-1,5.85,5.85,0,0,1,1.47-.58,7.09,7.09,0,0,1,1.57-.19h0a2.35,2.35,0,0,1,1.58.54,1.56,1.56,0,0,1,.65,1.25h0a1.83,1.83,0,0,1-.54,1.49,1.71,1.71,0,0,1-1.16.46h0a2.58,2.58,0,0,1-1.08-.22,2.75,2.75,0,0,0-1.11-.22h0a2.86,2.86,0,0,0-1.15.26,3.17,3.17,0,0,0-1.06.84,4.55,4.55,0,0,0-.79,1.39,5.81,5.81,0,0,0-.3,2h0v7.44A1.85,1.85,0,0,1,207,40.9,1.77,1.77,0,0,1,205.68,41.45Zm10.76-2.6h0a1.81,1.81,0,0,1-.28-1.13,1.54,1.54,0,0,1,.82-1.2h0a1.77,1.77,0,0,1,1.06-.26,1.83,1.83,0,0,1,1.1.58h0a7.4,7.4,0,0,0,1.91,1.41,5.56,5.56,0,0,0,2.51.5h0a7.13,7.13,0,0,0,1-.14,2,2,0,0,0,1-.5A1.57,1.57,0,0,0,226,36.9h0a1.37,1.37,0,0,0-.47-1.1,4.34,4.34,0,0,0-1.24-.69c-.51-.18-1.08-.36-1.71-.53h0c-.64-.18-1.31-.39-2-.63a7.86,7.86,0,0,1-1.87-.89,4.3,4.3,0,0,1-1.38-1.46,4.51,4.51,0,0,1-.53-2.29h0a4.2,4.2,0,0,1,.88-2.67A5.82,5.82,0,0,1,220,25a7.39,7.39,0,0,1,2.93-.6h0a9.14,9.14,0,0,1,2,.24,8,8,0,0,1,2,.75,5.16,5.16,0,0,1,1.63,1.37h0a2.15,2.15,0,0,1,.41,1.13,1.34,1.34,0,0,1-.59,1.19h0a1.54,1.54,0,0,1-1.1.33,1.64,1.64,0,0,1-1-.43h0a3.61,3.61,0,0,0-1.43-1.09,4.87,4.87,0,0,0-2.05-.41h0a5.55,5.55,0,0,0-1,.11,2.16,2.16,0,0,0-1,.47,1.49,1.49,0,0,0-.4,1.14h0a1.48,1.48,0,0,0,.47,1.15,3.72,3.72,0,0,0,1.27.69c.54.18,1.11.35,1.71.52h0c.63.17,1.27.37,1.91.59a8.14,8.14,0,0,1,1.79.91,4.19,4.19,0,0,1,1.82,3.73h0a4.1,4.1,0,0,1-.94,2.73,5.74,5.74,0,0,1-2.36,1.71,7.45,7.45,0,0,1-2.88.58h0a11.21,11.21,0,0,1-3.7-.64A6.38,6.38,0,0,1,216.44,38.85Zm23.84,2.91h0a9.24,9.24,0,0,1-4.62-1.11,7.78,7.78,0,0,1-3-3,8.81,8.81,0,0,1-1-4.33h0a9.54,9.54,0,0,1,1.15-4.81,8.22,8.22,0,0,1,3-3.06,7.8,7.8,0,0,1,3.93-1.07h0a7,7,0,0,1,3,.66,8.26,8.26,0,0,1,2.53,1.81A8.47,8.47,0,0,1,247,29.47a8,8,0,0,1,.64,3.2h0a1.58,1.58,0,0,1-.59,1.22,2,2,0,0,1-1.32.47h-12l-.95-3.14h11.52l-.69.63V31a2.85,2.85,0,0,0-.65-1.63,4.05,4.05,0,0,0-1.44-1.14,4.1,4.1,0,0,0-1.83-.43h0a5.85,5.85,0,0,0-1.76.26,3.49,3.49,0,0,0-1.41.84,4.16,4.16,0,0,0-.94,1.6A8,8,0,0,0,235.2,33h0a5.45,5.45,0,0,0,.71,2.87,4.73,4.73,0,0,0,1.82,1.79,4.8,4.8,0,0,0,2.36.61h0a7.12,7.12,0,0,0,1.86-.19,3.87,3.87,0,0,0,1.11-.45c.28-.18.54-.33.77-.45h0a2.39,2.39,0,0,1,1.06-.29h0a1.57,1.57,0,0,1,1.6,1.57h0a2,2,0,0,1-.87,1.54h0a7.17,7.17,0,0,1-2.29,1.21A9.25,9.25,0,0,1,240.28,41.76Z" transform="translate(40 79.74)"/></svg>