<?xml version="1.0" encoding="utf-8"?>
<!-- Generator: Adobe Illustrator 24.0.1, SVG Export Plug-In . SVG Version: 6.00 Build 0)  -->
<svg version="1.1" id="图层_1" xmlns="http://www.w3.org/2000/svg" xmlns:xlink="http://www.w3.org/1999/xlink" x="0px" y="0px"
	 viewBox="0 0 250 60" style="enable-background:new 0 0 250 60;" xml:space="preserve">
<style type="text/css">
	.st0{fill:#FFFFFF;fill-opacity:0;}
	.st1{fill:#FFFFFF;}
	.st2{fill:#FFFFFF;stroke:#FFFFFF;stroke-miterlimit:10;}
</style>
<rect x="-40" y="-79.7" class="st0" width="340" height="250"/>
<g transform="translate(58.97999572753906,0)">
	<g>
		<rect x="-57" class="st0" width="60" height="60"/>
		<g>
			<path class="st1" d="M-13.2,49.9c-2.4,1.4-4.3,4.4-4.3,6.8V60h13.3c4,0,7.2-3.2,7.2-7.2V41.3L-13.2,49.9z"/>
			<g>
				<path class="st1" d="M-24.2,47.1c0-2.4-1.9-5.4-4.3-6.8l-28.4-15v27.6c0,4,3.2,7.2,7.2,7.2h25.6V47.1z"/>
				<path class="st1" d="M-4.2,0h-45.7c-4,0-7.2,3.2-7.2,7.2v0.1l30.8,16.4c2.4,1.4,4.3,4.4,4.3,6.8V60h2V40.1
					c0-2.4,1.9-5.4,4.3-6.8L3,23.4V7.2C3,3.2-0.2,0-4.2,0z"/>
			</g>
		</g>
	</g>
</g>
<g transform="translate(0,67.00659942626953)">
	<g>
		<g transform="scale(1)">
			<g>
				<path class="st2" d="M87.1-47.6L87.1-47.6c0.5,0,1,0.2,1.4,0.5c0.4,0.3,0.6,0.8,0.6,1.3l0,0c0,0.3-0.1,0.6-0.2,0.8l0,0
					l-7.7,18.1c-0.2,0.4-0.5,0.7-0.8,0.9c-0.3,0.2-0.7,0.3-1.1,0.3l0,0c-0.3,0-0.7-0.1-1-0.3c-0.3-0.2-0.6-0.5-0.7-0.9l0,0
					l-7.8-18.2c-0.1-0.1-0.1-0.3-0.1-0.4c0-0.1,0-0.3,0-0.4l0,0c0-0.6,0.2-1.1,0.7-1.4c0.4-0.3,0.9-0.5,1.3-0.5l0,0
					c0.8,0,1.4,0.4,1.7,1.2l0,0l6.9,16.2l-1.1,0l6.3-16.2C85.7-47.2,86.3-47.6,87.1-47.6z M107.4-33.9L107.4-33.9
					c0,1.7-0.4,3.2-1.1,4.5c-0.8,1.3-1.8,2.3-3.1,3.1c-1.3,0.7-2.7,1.1-4.3,1.1l0,0c-1.6,0-3-0.4-4.3-1.1c-1.3-0.7-2.3-1.8-3.1-3.1
					c-0.8-1.3-1.1-2.8-1.1-4.5l0,0c0-1.7,0.4-3.2,1.1-4.5c0.8-1.3,1.8-2.3,3.1-3.1c1.3-0.7,2.7-1.1,4.3-1.1l0,0c1.6,0,3,0.4,4.3,1.1
					c1.3,0.7,2.3,1.8,3.1,3.1C107-37.2,107.4-35.6,107.4-33.9z M103.6-33.9L103.6-33.9c0-1.1-0.2-2-0.7-2.8c-0.4-0.8-1-1.4-1.7-1.8
					c-0.7-0.4-1.5-0.7-2.4-0.7l0,0c-0.9,0-1.7,0.2-2.4,0.7c-0.7,0.4-1.3,1.1-1.7,1.8c-0.4,0.8-0.6,1.7-0.6,2.8l0,0
					c0,1,0.2,2,0.6,2.8c0.4,0.8,1,1.4,1.7,1.8c0.7,0.4,1.5,0.7,2.4,0.7l0,0c0.9,0,1.7-0.2,2.4-0.7c0.7-0.4,1.3-1,1.7-1.8
					C103.4-32,103.6-32.9,103.6-33.9z M117.9-42.7L117.9-42.7c1.2,0,2.2,0.1,3.1,0.4c0.9,0.3,1.6,0.6,2.1,1c0.5,0.5,0.7,1,0.7,1.6
					l0,0c0,0.4-0.1,0.8-0.4,1.2c-0.3,0.4-0.6,0.6-1.1,0.5l0,0c-0.3,0-0.6,0-0.8-0.1c-0.2-0.1-0.4-0.2-0.6-0.4
					c-0.2-0.1-0.4-0.3-0.6-0.4l0,0c-0.2-0.1-0.5-0.2-0.9-0.3c-0.4-0.1-0.8-0.1-1-0.1l0,0c-1.1,0-2,0.2-2.7,0.7
					c-0.7,0.5-1.3,1.1-1.7,1.9c-0.4,0.8-0.6,1.7-0.6,2.7l0,0c0,1,0.2,1.9,0.6,2.7c0.4,0.8,1,1.4,1.7,1.9c0.7,0.5,1.5,0.7,2.5,0.7
					l0,0c0.5,0,1,0,1.3-0.1c0.4-0.1,0.7-0.2,0.9-0.3l0,0c0.3-0.2,0.6-0.3,0.8-0.5c0.2-0.2,0.6-0.3,1-0.3l0,0c0.5,0,1,0.2,1.3,0.5
					c0.3,0.3,0.4,0.8,0.4,1.3l0,0c0,0.5-0.3,1-0.9,1.4c-0.6,0.4-1.4,0.8-2.3,1c-1,0.3-2,0.4-3.1,0.4l0,0c-1.7,0-3.1-0.4-4.3-1.1
					c-1.2-0.8-2.2-1.8-2.8-3.1c-0.7-1.3-1-2.8-1-4.4l0,0c0-1.7,0.3-3.2,1-4.5c0.7-1.3,1.7-2.3,2.9-3.1
					C114.8-42.3,116.2-42.7,117.9-42.7z M140.3-42.7L140.3-42.7c0.5,0,1,0.2,1.3,0.5c0.4,0.4,0.5,0.8,0.5,1.4l0,0v13.3
					c0,0.5-0.2,1-0.5,1.4c-0.4,0.4-0.8,0.6-1.3,0.6l0,0c-0.5,0-1-0.2-1.4-0.6c-0.4-0.4-0.5-0.8-0.5-1.4l0,0V-29l0.7,0.3
					c0,0.3-0.1,0.6-0.4,1c-0.3,0.4-0.7,0.8-1.2,1.1c-0.5,0.4-1.1,0.7-1.8,1c-0.7,0.3-1.4,0.4-2.2,0.4l0,0c-1.4,0-2.8-0.4-3.9-1.1
					c-1.2-0.7-2.1-1.8-2.8-3.1c-0.7-1.3-1-2.8-1-4.5l0,0c0-1.7,0.3-3.2,1-4.5c0.7-1.3,1.6-2.3,2.8-3.1c1.1-0.7,2.4-1.1,3.8-1.1l0,0
					c0.9,0,1.7,0.1,2.5,0.4c0.8,0.3,1.4,0.6,2,1c0.6,0.4,1,0.8,1.3,1.3c0.3,0.4,0.5,0.8,0.5,1.1l0,0l-1.1,0.4v-2.3
					c0-0.5,0.2-1,0.5-1.4C139.3-42.5,139.7-42.7,140.3-42.7z M133.9-28.7L133.9-28.7c0.9,0,1.7-0.2,2.4-0.7c0.7-0.5,1.2-1.1,1.6-1.9
					c0.4-0.8,0.6-1.7,0.6-2.7l0,0c0-1-0.2-1.9-0.6-2.7c-0.4-0.8-0.9-1.4-1.6-1.9c-0.7-0.5-1.5-0.7-2.4-0.7l0,0
					c-0.9,0-1.7,0.2-2.4,0.7c-0.7,0.5-1.2,1.1-1.6,1.9c-0.4,0.8-0.6,1.7-0.6,2.7l0,0c0,1,0.2,1.9,0.6,2.7c0.4,0.8,0.9,1.4,1.6,1.9
					C132.2-28.9,133-28.7,133.9-28.7z M154.9-42.7L154.9-42.7c1.5,0,2.8,0.4,3.9,1.1c1.2,0.7,2.1,1.8,2.8,3.1c0.7,1.3,1,2.8,1,4.5
					l0,0c0,1.7-0.3,3.2-1,4.5s-1.6,2.3-2.7,3.1s-2.4,1.1-3.8,1.1l0,0c-0.8,0-1.6-0.1-2.4-0.4c-0.7-0.3-1.4-0.6-1.9-1
					c-0.6-0.4-1-0.8-1.3-1.3c-0.3-0.4-0.4-0.8-0.4-1.1l0,0l1-0.4v2.3c0,0.5-0.2,1-0.5,1.4c-0.4,0.4-0.8,0.6-1.4,0.6l0,0
					c-0.5,0-1-0.2-1.3-0.5c-0.4-0.4-0.5-0.8-0.5-1.4l0,0v-19.7c0-0.5,0.2-1,0.5-1.4c0.4-0.4,0.8-0.5,1.3-0.5l0,0
					c0.5,0,1,0.2,1.4,0.5c0.4,0.4,0.5,0.8,0.5,1.4l0,0v8l-0.5-0.3c0-0.3,0.1-0.6,0.4-1c0.3-0.4,0.7-0.8,1.2-1.2
					c0.5-0.4,1.1-0.7,1.7-1S154.2-42.7,154.9-42.7z M154.5-39.2L154.5-39.2c-0.9,0-1.7,0.2-2.4,0.7c-0.7,0.5-1.2,1.1-1.6,1.9
					s-0.6,1.7-0.6,2.7l0,0c0,1,0.2,1.9,0.6,2.7c0.4,0.8,0.9,1.4,1.6,1.9c0.7,0.5,1.5,0.7,2.4,0.7l0,0c0.9,0,1.7-0.2,2.4-0.7
					c0.7-0.5,1.2-1.1,1.6-1.9c0.4-0.8,0.6-1.7,0.6-2.7l0,0c0-1-0.2-1.9-0.6-2.7c-0.4-0.8-0.9-1.4-1.6-1.9
					C156.2-39,155.4-39.2,154.5-39.2z M181.4-47.6L181.4-47.6c0.5,0,1,0.2,1.4,0.5c0.4,0.3,0.6,0.8,0.6,1.3l0,0
					c0,0.3-0.1,0.6-0.2,0.8l0,0l-7.8,18.1c-0.2,0.4-0.5,0.7-0.8,0.9c-0.3,0.2-0.7,0.3-1.1,0.3l0,0c-0.3,0-0.7-0.1-1-0.3
					c-0.3-0.2-0.6-0.5-0.7-0.9l0,0l-7.8-18.2c-0.1-0.1-0.1-0.3-0.1-0.4c0-0.1,0-0.3,0-0.4l0,0c0-0.6,0.2-1.1,0.7-1.4
					c0.4-0.3,0.9-0.5,1.3-0.5l0,0c0.8,0,1.4,0.4,1.7,1.2l0,0l6.9,16.2l-1.1,0l6.3-16.2C180-47.2,180.6-47.6,181.4-47.6z M193.4-25.2
					L193.4-25.2c-1.8,0-3.3-0.4-4.6-1.1c-1.3-0.7-2.3-1.8-3-3c-0.7-1.3-1.1-2.7-1.1-4.3l0,0c0-1.9,0.4-3.5,1.1-4.8
					c0.8-1.3,1.8-2.3,3-3.1c1.2-0.7,2.5-1.1,3.9-1.1l0,0c1.1,0,2.1,0.2,3,0.7c1,0.4,1.8,1,2.5,1.8c0.7,0.8,1.3,1.6,1.7,2.7
					c0.4,1,0.6,2.1,0.6,3.2l0,0c0,0.5-0.2,0.9-0.6,1.2c-0.4,0.3-0.8,0.5-1.3,0.5l0,0h-12l-1-3.1h11.5l-0.7,0.6V-36
					c0-0.6-0.3-1.1-0.6-1.6c-0.4-0.5-0.9-0.9-1.4-1.1c-0.6-0.3-1.2-0.4-1.8-0.4l0,0c-0.6,0-1.2,0.1-1.8,0.3c-0.5,0.2-1,0.4-1.4,0.8
					c-0.4,0.4-0.7,0.9-0.9,1.6c-0.2,0.7-0.4,1.5-0.3,2.5l0,0c0,1.1,0.2,2.1,0.7,2.9c0.5,0.8,1.1,1.4,1.8,1.8
					c0.7,0.4,1.5,0.6,2.4,0.6l0,0c0.8,0,1.4-0.1,1.9-0.2c0.5-0.1,0.8-0.3,1.1-0.5c0.3-0.2,0.5-0.3,0.8-0.5l0,0
					c0.4-0.2,0.7-0.3,1.1-0.3l0,0c0.5,0,0.8,0.2,1.1,0.5c0.3,0.3,0.4,0.7,0.4,1.1l0,0c0,0.6-0.3,1.1-0.9,1.5l0,0
					c-0.5,0.5-1.3,0.9-2.3,1.2C195.4-25.4,194.4-25.2,193.4-25.2z M205.7-25.6L205.7-25.6c-0.5,0-1-0.2-1.4-0.6
					c-0.4-0.4-0.5-0.8-0.5-1.4l0,0v-13c0-0.5,0.2-1,0.5-1.4c0.4-0.4,0.8-0.6,1.4-0.6l0,0c0.5,0,1,0.2,1.3,0.6
					c0.4,0.4,0.5,0.8,0.5,1.4l0,0v2.9l-0.2-2.1c0.2-0.5,0.5-1,0.9-1.3c0.4-0.4,0.8-0.7,1.2-1c0.5-0.3,0.9-0.5,1.5-0.6
					c0.5-0.1,1.1-0.2,1.6-0.2l0,0c0.6,0,1.2,0.2,1.6,0.5c0.4,0.4,0.6,0.8,0.6,1.3l0,0c0,0.7-0.2,1.2-0.5,1.5
					c-0.4,0.3-0.7,0.5-1.2,0.5l0,0c-0.4,0-0.8-0.1-1.1-0.2c-0.3-0.1-0.7-0.2-1.1-0.2l0,0c-0.4,0-0.8,0.1-1.1,0.3
					c-0.4,0.2-0.7,0.5-1.1,0.8c-0.3,0.4-0.6,0.8-0.8,1.4c-0.2,0.6-0.3,1.2-0.3,2l0,0v7.4c0,0.5-0.2,1-0.5,1.4S206.2-25.6,205.7-25.6
					z M216.4-28.2L216.4-28.2c-0.2-0.3-0.3-0.7-0.3-1.1c0-0.5,0.3-0.9,0.8-1.2l0,0c0.3-0.2,0.7-0.3,1.1-0.3c0.4,0,0.7,0.2,1.1,0.6
					l0,0c0.6,0.6,1.2,1.1,1.9,1.4c0.7,0.3,1.5,0.5,2.5,0.5l0,0c0.3,0,0.7-0.1,1-0.1c0.4-0.1,0.7-0.2,1-0.5c0.3-0.3,0.4-0.7,0.4-1.2
					l0,0c0-0.5-0.2-0.8-0.5-1.1c-0.3-0.3-0.7-0.5-1.2-0.7c-0.5-0.2-1.1-0.4-1.7-0.5l0,0c-0.6-0.2-1.3-0.4-2-0.6
					c-0.7-0.2-1.3-0.5-1.9-0.9c-0.6-0.4-1-0.9-1.4-1.5c-0.4-0.6-0.5-1.4-0.5-2.3l0,0c0-1,0.3-1.9,0.9-2.7c0.6-0.7,1.3-1.3,2.3-1.7
					c0.9-0.4,1.9-0.6,2.9-0.6l0,0c0.7,0,1.3,0.1,2,0.2c0.7,0.2,1.4,0.4,2,0.8s1.2,0.8,1.6,1.4l0,0c0.2,0.3,0.4,0.7,0.4,1.1
					c0,0.4-0.2,0.8-0.6,1.2l0,0c-0.3,0.2-0.7,0.4-1.1,0.3c-0.4,0-0.8-0.2-1-0.4l0,0c-0.4-0.5-0.8-0.8-1.4-1.1
					c-0.6-0.3-1.3-0.4-2.1-0.4l0,0c-0.3,0-0.7,0-1,0.1c-0.4,0.1-0.7,0.2-1,0.5c-0.3,0.2-0.4,0.6-0.4,1.1l0,0c0,0.5,0.2,0.9,0.5,1.1
					c0.3,0.3,0.7,0.5,1.3,0.7c0.5,0.2,1.1,0.3,1.7,0.5l0,0c0.6,0.2,1.3,0.4,1.9,0.6c0.6,0.2,1.2,0.5,1.8,0.9c0.5,0.4,1,0.9,1.3,1.5
					c0.3,0.6,0.5,1.3,0.5,2.3l0,0c0,1.1-0.3,2-0.9,2.7c-0.6,0.8-1.4,1.3-2.4,1.7c-0.9,0.4-1.9,0.6-2.9,0.6l0,0
					c-1.2,0-2.5-0.2-3.7-0.6C218.3-26.3,217.3-27.1,216.4-28.2z M240.3-25.2L240.3-25.2c-1.8,0-3.3-0.4-4.6-1.1
					c-1.3-0.7-2.3-1.8-3-3c-0.7-1.3-1.1-2.7-1.1-4.3l0,0c0-1.9,0.4-3.5,1.2-4.8c0.8-1.3,1.8-2.3,3-3.1c1.2-0.7,2.6-1.1,3.9-1.1l0,0
					c1.1,0,2.1,0.2,3,0.7c1,0.4,1.8,1,2.5,1.8c0.7,0.8,1.3,1.6,1.7,2.7c0.4,1,0.6,2.1,0.6,3.2l0,0c0,0.5-0.2,0.9-0.6,1.2
					c-0.4,0.3-0.8,0.5-1.3,0.5l0,0h-12l-0.9-3.1h11.5l-0.7,0.6V-36c0-0.6-0.3-1.1-0.6-1.6c-0.4-0.5-0.9-0.9-1.4-1.1
					c-0.6-0.3-1.2-0.4-1.8-0.4l0,0c-0.6,0-1.2,0.1-1.8,0.3c-0.5,0.2-1,0.4-1.4,0.8c-0.4,0.4-0.7,0.9-0.9,1.6
					c-0.2,0.7-0.4,1.5-0.4,2.5l0,0c0,1.1,0.2,2.1,0.7,2.9c0.5,0.8,1.1,1.4,1.8,1.8c0.7,0.4,1.5,0.6,2.4,0.6l0,0
					c0.8,0,1.4-0.1,1.9-0.2c0.5-0.1,0.8-0.3,1.1-0.5s0.5-0.3,0.8-0.5l0,0c0.4-0.2,0.7-0.3,1.1-0.3l0,0c0.5,0,0.8,0.2,1.2,0.5
					c0.3,0.3,0.4,0.7,0.4,1.1l0,0c0,0.6-0.3,1.1-0.9,1.5l0,0c-0.5,0.5-1.3,0.9-2.3,1.2C242.3-25.4,241.3-25.2,240.3-25.2z"/>
			</g>
		</g>
	</g>
</g>
</svg>
